# xmcd
#
# Track frame offsets:
#	150
#	25745
#	48012
#	72050
#	92842
#	111675
#	129870
#	152245
#
# Disc length: 2459 seconds
#
# Revision: 1
# Processed by: cddbd v1.5.1PL0 Copyright (c) Steve Scherf et al.
# Submitted via: CDex 1.50Beta5
#
DISCID=61099908
DTITLE=Various Artist - でじたるざんまい
DYEAR=1900
DGENRE=ROCK
TTITLE0=REBECCA/ONE MORE KISS
TTITLE1=T.M.NETWORK/COME ON EVERYBODY
TTITLE2=TUBE/REMEMBER ME
TTITLE3=PRINCESS PRINCESS/GET CRAZY
TTITLE4=MAURICE WHITE/STAND BY ME
TTITLE5=MARVIN GAYE/SEXUAL HEALING
TTITLE6=TOTO/I WON'T HOLD YOU BACK
TTITLE7=HIROKO NAKAMURA/CHOPIN:Polonaise No,6 In A-Flat Major OP,53
EXTD=
EXTT0=
EXTT1=
EXTT2=
EXTT3=
EXTT4=
EXTT5=
EXTT6=
EXTT7=
PLAYORDER=
